<?plantuml 1.2026.2beta3?><svg xmlns="http://www.w3.org/2000/svg" xmlns:xlink="http://www.w3.org/1999/xlink" contentStyleType="text/css" data-diagram-type="SEQUENCE" height="492px" preserveAspectRatio="none" style="width:537px;height:492px;background:#FFFFFF;" version="1.1" viewBox="0 0 537 492" width="537px" zoomAndPan="magnify"><defs/><g><rect fill="none" height="112.3516" style="stroke:#000000;stroke-width:1.5;" width="507.3948" x="10" y="280.9297"/><g class="participant-lifeline" data-entity-uid="part1" data-qualified-name="SC" id="part1-lifeline"><g><title>Contract</title><rect fill="#000000" fill-opacity="0.00000" height="423.0859" width="8" x="50.9614" y="35.1328"/><line style="stroke:#181818;stroke-width:0.5;stroke-dasharray:5,5;" x1="54" x2="54" y1="35.1328" y2="458.2188"/></g></g><g class="participant-lifeline" data-entity-uid="part2" data-qualified-name="S" id="part2-lifeline"><g><title>Server</title><rect fill="#000000" fill-opacity="0.00000" height="423.0859" width="8" x="266.9888" y="35.1328"/><line style="stroke:#181818;stroke-width:0.5;stroke-dasharray:5,5;" x1="270.6733" x2="270.6733" y1="35.1328" y2="458.2188"/></g></g><g class="participant-lifeline" data-entity-uid="part3" data-qualified-name="P" id="part3-lifeline"><g><title>Player</title><rect fill="#000000" fill-opacity="0.00000" height="423.0859" width="8" x="476.168" y="35.1328"/><line style="stroke:#181818;stroke-width:0.5;stroke-dasharray:5,5;" x1="479.9412" x2="479.9412" y1="35.1328" y2="458.2188"/></g></g><g class="participant participant-head" data-entity-uid="part1" data-qualified-name="SC" id="part1-head"><rect fill="#FFFFFF" height="29.1328" rx="2.5" ry="2.5" style="stroke:#000000;stroke-width:0.5;" width="69.9229" x="20" y="5"/><text fill="#000000" font-family="'Consolas'" font-size="13" lengthAdjust="spacing" textLength="55.9229" x="27" y="24.0669">Contract</text></g><g class="participant participant-tail" data-entity-uid="part1" data-qualified-name="SC" id="part1-tail"><rect fill="#FFFFFF" height="29.1328" rx="2.5" ry="2.5" style="stroke:#000000;stroke-width:0.5;" width="69.9229" x="20" y="457.2188"/><text fill="#000000" font-family="'Consolas'" font-size="13" lengthAdjust="spacing" textLength="55.9229" x="27" y="476.2856">Contract</text></g><g class="participant participant-head" data-entity-uid="part2" data-qualified-name="S" id="part2-head"><rect fill="#FFFFFF" height="29.1328" rx="2.5" ry="2.5" style="stroke:#000000;stroke-width:0.5;" width="56.6309" x="242.6733" y="5"/><text fill="#000000" font-family="'Consolas'" font-size="13" lengthAdjust="spacing" textLength="42.6309" x="249.6733" y="24.0669">Server</text></g><g class="participant participant-tail" data-entity-uid="part2" data-qualified-name="S" id="part2-tail"><rect fill="#FFFFFF" height="29.1328" rx="2.5" ry="2.5" style="stroke:#000000;stroke-width:0.5;" width="56.6309" x="242.6733" y="457.2188"/><text fill="#000000" font-family="'Consolas'" font-size="13" lengthAdjust="spacing" textLength="42.6309" x="249.6733" y="476.2856">Server</text></g><g class="participant participant-head" data-entity-uid="part3" data-qualified-name="P" id="part3-head"><rect fill="#FFFFFF" height="29.1328" rx="2.5" ry="2.5" style="stroke:#000000;stroke-width:0.5;" width="54.4536" x="452.9412" y="5"/><text fill="#000000" font-family="'Consolas'" font-size="13" lengthAdjust="spacing" textLength="40.4536" x="459.9412" y="24.0669">Player</text></g><g class="participant participant-tail" data-entity-uid="part3" data-qualified-name="P" id="part3-tail"><rect fill="#FFFFFF" height="29.1328" rx="2.5" ry="2.5" style="stroke:#000000;stroke-width:0.5;" width="54.4536" x="452.9412" y="457.2188"/><text fill="#000000" font-family="'Consolas'" font-size="13" lengthAdjust="spacing" textLength="40.4536" x="459.9412" y="476.2856">Player</text></g><g class="message" data-entity-1="part3" data-entity-2="part1" id="msg1"><polygon fill="#000000" points="65.9614,59.9375,55.9614,63.9375,65.9614,67.9375,61.9614,63.9375" style="stroke:#000000;stroke-width:1;"/><line style="stroke:#000000;stroke-width:1;" x1="59.9614" x2="479.168" y1="63.9375" y2="63.9375"/><text fill="#000000" font-family="'Consolas'" font-size="11" lengthAdjust="spacing" textLength="117.353" x="71.9614" y="59.3433">start(player, commit)</text></g><g class="message" data-entity-1="part1" data-entity-2="part3" id="msg2"><polygon fill="#000000" points="468.168,86.7422,478.168,90.7422,468.168,94.7422,472.168,90.7422" style="stroke:#000000;stroke-width:1;"/><line style="stroke:#000000;stroke-width:1;" x1="54.9614" x2="474.168" y1="90.7422" y2="90.7422"/><text fill="#000000" font-family="'Consolas'" font-size="11" lengthAdjust="spacing" textLength="182.7031" x="61.9614" y="86.1479">seed = Poseidon2(player, nonce)</text></g><g class="message" data-entity-1="part3" data-entity-2="part2" id="msg3"><polygon fill="#000000" points="281.9888,113.5469,271.9888,117.5469,281.9888,121.5469,277.9888,117.5469" style="stroke:#000000;stroke-width:1;"/><line style="stroke:#000000;stroke-width:1;" x1="275.9888" x2="479.168" y1="117.5469" y2="117.5469"/><text fill="#000000" font-family="'Consolas'" font-size="11" lengthAdjust="spacing" textLength="26.2485" x="287.9888" y="112.9526">seed</text></g><g class="message" data-entity-1="part2" data-entity-2="part2" id="msg4"><line style="stroke:#000000;stroke-width:1;" x1="270.9888" x2="312.9888" y1="144.3516" y2="144.3516"/><line style="stroke:#000000;stroke-width:1;" x1="312.9888" x2="312.9888" y1="144.3516" y2="157.3516"/><line style="stroke:#000000;stroke-width:1;" x1="271.9888" x2="312.9888" y1="157.3516" y2="157.3516"/><polygon fill="#000000" points="281.9888,153.3516,271.9888,157.3516,281.9888,161.3516,277.9888,157.3516" style="stroke:#000000;stroke-width:1;"/><text fill="#000000" font-family="'Consolas'" font-size="11" lengthAdjust="spacing" textLength="149.687" x="277.9888" y="139.7573">seed &#8594; session data (level)</text></g><g class="message" data-entity-1="part2" data-entity-2="part3" id="msg5"><polygon fill="#000000" points="468.168,180.1563,478.168,184.1563,468.168,188.1563,472.168,184.1563" style="stroke:#000000;stroke-width:1;"/><line style="stroke:#000000;stroke-width:1;" x1="270.9888" x2="474.168" y1="184.1563" y2="184.1563"/><text fill="#000000" font-family="'Consolas'" font-size="11" lengthAdjust="spacing" textLength="185.1792" x="277.9888" y="179.562">session data + signed attestation</text></g><g class="message" data-entity-1="part3" data-entity-2="part3" id="msg6"><line style="stroke:#000000;stroke-width:1;" x1="480.168" x2="522.168" y1="210.9609" y2="210.9609"/><line style="stroke:#000000;stroke-width:1;" x1="522.168" x2="522.168" y1="210.9609" y2="223.9609"/><line style="stroke:#000000;stroke-width:1;" x1="481.168" x2="522.168" y1="223.9609" y2="223.9609"/><polygon fill="#000000" points="491.168,219.9609,481.168,223.9609,491.168,227.9609,487.168,223.9609" style="stroke:#000000;stroke-width:1;"/><text fill="#000000" font-family="'Consolas'" font-size="11" lengthAdjust="spacing" textLength="23.2891" x="487.168" y="206.3667">play</text></g><rect fill="#FFFFFF" height="3" style="stroke:#FFFFFF;stroke-width:1;" width="530.168" x="0" y="251.9453"/><line style="stroke:#000000;stroke-width:1;" x1="0" x2="530.168" y1="251.9453" y2="251.9453"/><line style="stroke:#000000;stroke-width:1;" x1="0" x2="530.168" y1="254.9453" y2="254.9453"/><rect fill="#FFFFFF" height="21.9688" style="stroke:#000000;stroke-width:2;" width="158.5332" x="185.8174" y="241.9609"/><text fill="#000000" font-family="'Consolas'" font-size="12" font-weight="bold" lengthAdjust="spacing" textLength="140.3555" x="191.8174" y="257.0996">ZK Proof Submission</text><path d="M10,280.9297 L72.9473,280.9297 L72.9473,286.8984 L62.9473,296.8984 L10,296.8984 L10,280.9297" fill="#EEEEEE" style="stroke:#000000;stroke-width:1.5;"/><rect fill="none" height="112.3516" style="stroke:#000000;stroke-width:1.5;" width="507.3948" x="10" y="280.9297"/><text fill="#000000" font-family="'Consolas'" font-size="12" font-weight="bold" lengthAdjust="spacing" textLength="17.9473" x="25" y="293.0684">alt</text><text fill="#000000" font-family="'Consolas'" font-size="12" font-weight="bold" lengthAdjust="spacing" textLength="237.6387" x="87.9473" y="294.0684">[trustless: proof generated locally]</text><g class="message" data-entity-1="part3" data-entity-2="part1" id="msg7"><polygon fill="#000000" points="65.9614,311.7031,55.9614,315.7031,65.9614,319.7031,61.9614,315.7031" style="stroke:#000000;stroke-width:1;"/><line style="stroke:#000000;stroke-width:1;" x1="59.9614" x2="479.168" y1="315.7031" y2="315.7031"/><text fill="#000000" font-family="'Consolas'" font-size="11" lengthAdjust="spacing" textLength="123.2827" x="71.9614" y="311.1089">ZK proof + attestation</text></g><line style="stroke:#000000;stroke-width:1;stroke-dasharray:2,2;" x1="10" x2="517.3948" y1="324.7031" y2="324.7031"/><text fill="#000000" font-family="'Consolas'" font-size="12" font-weight="bold" lengthAdjust="spacing" textLength="184.9043" x="15" y="335.8418">[delegated: commit/reveal]</text><g class="message" data-entity-1="part3" data-entity-2="part2" id="msg8"><polygon fill="#000000" points="281.9888,354.4766,271.9888,358.4766,281.9888,362.4766,277.9888,358.4766" style="stroke:#000000;stroke-width:1;"/><line style="stroke:#000000;stroke-width:1;" x1="275.9888" x2="479.168" y1="358.4766" y2="358.4766"/><text fill="#000000" font-family="'Consolas'" font-size="11" lengthAdjust="spacing" textLength="110.3115" x="287.9888" y="353.8823">preimage + witness</text></g><g class="message" data-entity-1="part2" data-entity-2="part1" id="msg9"><polygon fill="#000000" points="65.9614,381.2813,55.9614,385.2813,65.9614,389.2813,61.9614,385.2813" style="stroke:#000000;stroke-width:1;"/><line style="stroke:#000000;stroke-width:1;" x1="59.9614" x2="269.9888" y1="385.2813" y2="385.2813"/><text fill="#000000" font-family="'Consolas'" font-size="11" lengthAdjust="spacing" textLength="192.0273" x="71.9614" y="380.687">preimage + ZK proof + attestation</text></g><path d="M59,405.2813 L59,442.2813 L360,442.2813 L360,415.2813 L350,405.2813 L59,405.2813" fill="#FEFFDD" style="stroke:#181818;stroke-width:0.5;"/><path d="M350,405.2813 L350,415.2813 L360,415.2813 L350,405.2813" fill="#FEFFDD" style="stroke:#181818;stroke-width:0.5;"/><text fill="#000000" font-family="'Consolas'" font-size="12" lengthAdjust="spacing" textLength="210.1816" x="65" y="421.4199">&#10003; attestation.seed == stored seed</text><text fill="#000000" font-family="'Consolas'" font-size="12" lengthAdjust="spacing" textLength="280.4883" x="65" y="435.3887">&#10003; proof validates solution + session data hash</text><?plantuml-src TPEnRjim48PtFSN1NMAaJPrq2w02ZLql1G81shfTfBDCX29TykGWBRhs0TgrJvSdwL5K55fLD4dy_ll_EvBozyeSq64BTrZTDyvsfbvRRHsysUrscHznJJliD6-juO6lLgjvVeijmM9jZRSQ_M9ULAhl19TN2VJqhIDJ4Vp8G9vFpjc796fScxHmiXvTB_l50XshIXtGy8rrDRb9KShdPfzePc8dD8P_wD6jPVhFTVjvkzriNlXSLm7CH3qlfmDkr569mQlDF_Evc85DadvcXvUH-YDaXnKl03sKwrDOaZkIY-YK51eV1r9a1RpxABLm3Pv5T7ReuLkeRDigNcQ2H504JbH33eNrf6fhhaQfiN8hbeFJ8CpAz0kUVlsM5--LDL0Z8vnfEf9UHbbqJ-WvUDKOgKDcahvOIFGFqf2RvJby_GA5itO7PNVNgbYUvnbg1dQTPosMekub3Hboo6AfROLQFyOBCWulNb5uVf99sfFy5PgQK7izxCfx9ysZJYn2LuvKYms9muDY8zazByU8HF1Qcgap8nS9d6hs366ojPWy_VsJoYxYGUHoODR9Mx_TKHLDZwYLR2Dva1-y2oLXGzFztQFVXpG8QVy0?></g></svg>